<?xml version="1.0" encoding="UTF-8"?>
<svg version="1.1" xmlns="http://www.w3.org/2000/svg" width="544" height="544">
<path d="M0 0 C3.22439677 2.65117068 5.47569953 5.12180191 7 9 C8.38338944 23.2650807 4.63190217 33.17055164 -3 45 C-3.55816406 45.61359375 -4.11632812 46.2271875 -4.69140625 46.859375 C-6.63863564 50.04469352 -6.40317292 53.24856105 -6.4375 56.875 C-6.64569473 63.97755947 -7.60587964 70.61520402 -9.0625 77.5625 C-10.89608932 86.62207278 -11.25964306 95.20868144 -11.05615234 104.43359375 C-10.88745307 113.26630387 -11.52380035 121.90687519 -12.55322266 130.67895508 C-13.19800966 136.97213878 -12.8418014 141.33279671 -10 147 C-9.49339844 148.07765625 -8.98679687 149.1553125 -8.46484375 150.265625 C-7.96082031 151.25046875 -7.45679688 152.2353125 -6.9375 153.25 C-6.43089844 154.24515625 -5.92429687 155.2403125 -5.40234375 156.265625 C-4.93957031 157.16796875 -4.47679687 158.0703125 -4 159 C-3.74017334 159.6607251 -3.48034668 160.3214502 -3.21264648 161.00219727 C-1.60491932 163.65088489 0.02859733 164.35505232 2.8046875 165.69921875 C3.775271 166.18173096 4.74585449 166.66424316 5.74584961 167.16137695 C6.77846924 167.66499756 7.81108887 168.16861816 8.875 168.6875 C20.35218936 174.47426617 30.08584383 180.80839852 39.28125 189.8828125 C40.93953216 191.20745008 40.93953216 191.20745008 43 190.8515625 C46.95343599 189.16826358 49.54278256 186.48635792 52 183 C53.19035465 179.75844599 54.078957 176.50138404 54.9765625 173.16796875 C56.79675775 167.53370026 59.8937773 163.55459295 64.625 160.0625 C69.17302621 158.0278567 72.98111835 157.57467105 78 158 C81.21158008 159.24966725 84.14345701 160.73600427 86.125 163.66015625 C89.12146328 171.6730201 90.00253187 182.72286826 88 191 C85.49285529 194.7987041 82.64000425 197.32760467 79.1875 200.25 C71.65577911 206.73799927 66.46535535 214.62026021 61.49414062 223.12133789 C58.83034103 227.6678357 56.01551523 232.07382336 53.0625 236.4375 C49.61318507 241.53782035 46.29517392 246.69732664 43.0625 251.9375 C32.66368911 268.63578608 22.58466986 284.33771776 5.296875 294.60546875 C-4.19330816 300.36736567 -9.74837815 311.89265628 -14.625 321.5 C-15.3826062 322.97509033 -15.3826062 322.97509033 -16.15551758 324.47998047 C-17.77850439 327.64922655 -19.38925499 330.82451757 -21 334 C-21.55059082 335.07540039 -22.10118164 336.15080078 -22.66845703 337.25878906 C-38.61889598 368.41757035 -50.39723838 398.03281076 -53.921875 433.03125 C-54.00536697 433.85225189 -54.08885895 434.67325378 -54.17488098 435.51913452 C-54.59515187 439.66443466 -55.00176335 443.81008555 -55.37963867 447.95947266 C-58.09408884 476.58538516 -67.18764153 502.16331463 -89.71875 521.296875 C-93.50416307 524.12297106 -97.56909243 526.47117852 -101.62890625 528.87890625 C-105.00574856 531.003617 -108.06485694 533.33287224 -111.1875 535.8125 C-119.51497459 542.15099772 -127.59678222 544.09819988 -138 543 C-151.17782781 540.37584381 -159.98665714 531.4180592 -167.3828125 520.640625 C-176.19955328 506.78109891 -179.36315983 492.40081248 -175.92333984 476.08618164 C-170.95860448 454.7677577 -163.88108739 437.06634791 -149.35351562 420.55957031 C-146.63185299 417.42357087 -144.05837494 414.16462671 -141.4609375 410.92578125 C-140.02309036 409.21634076 -138.55854623 407.52758144 -137.03344727 405.89550781 C-131.00172899 399.41798675 -126.01914033 392.52542185 -121.1875 385.125 C-120.40002376 383.92985163 -119.61242437 382.73478439 -118.82470703 381.53979492 C-112.25425983 371.53394392 -105.90370351 361.41487009 -100 351 C-99.61666504 350.33597168 -99.23333008 349.67194336 -98.83837891 348.98779297 C-93.51247764 339.64796346 -90.48526486 330.25113357 -87.73339844 319.87329102 C-85.7330594 312.64761167 -83.07820624 306.52250827 -78.66821289 300.43554688 C-76.24336008 296.81149979 -75.76366839 294.48485957 -76.5078125 290.1640625 C-76.98579594 288.10477253 -77.48595394 286.05058528 -78 284 C-78.29882819 282.65804261 -78.5925427 281.31493983 -78.88208008 279.97094727 C-79.87417063 275.37043973 -80.90441237 270.77894805 -81.9375 266.1875 C-82.2886274 264.6217932 -82.63954001 263.05603822 -82.99023438 261.49023438 C-83.2482634 260.3381826 -83.2482634 260.3381826 -83.51150513 259.16285706 C-84.18511935 256.14972561 -84.85487135 253.13573916 -85.52484131 250.12179565 C-85.97779946 248.09913531 -86.44032542 246.07888283 -86.90478516 244.05883789 C-88.33765537 237.6870565 -89.52547754 231.60385804 -89.5 225.0625 C-89.52835937 224.37349609 -89.55671875 223.68449219 -89.5859375 222.97460938 C-89.60106618 218.97685584 -89.03927021 216.76733096 -86.47265625 213.8359375 C-82.45336024 208.7950168 -83.6304681 202.67342525 -83.9375 196.5625 C-84.3748273 187.28814513 -84.623889 180.39640314 -78.38671875 173.1171875 C-73.36352159 169.44505716 -68.10816636 167.2800029 -62.19213867 165.44287109 C-58.51463254 164.16928818 -57.14145494 163.24640538 -55.18359375 159.8359375 C-54.75116731 158.56960522 -54.35795329 157.289364 -54 156 C-53.80913818 155.3299292 -53.61827637 154.6598584 -53.42163086 153.96948242 C-52.85754658 151.84255432 -52.35805413 149.70919254 -51.875 147.5625 C-51.70613281 146.85029297 -51.53726563 146.13808594 -51.36328125 145.40429688 C-49.5218726 137.42244286 -48.87514867 129.75342433 -48.9296875 121.5859375 C-48.86793442 86.39089434 -48.86793442 86.39089434 -42.69921875 70.80078125 C-40.61222804 65.43758361 -40.03402512 60.0684956 -39.4375 54.375 C-38.49337275 45.84818852 -36.66639639 39.33127472 -32 32 C-31.5359375 31.20464844 -31.071875 30.40929687 -30.59375 29.58984375 C-29.64840822 27.97488488 -28.68444472 26.37069708 -27.703125 24.77734375 C-26.37692674 22.61466723 -25.07936976 20.44236847 -23.796875 18.25390625 C-23.40733643 17.59302002 -23.01779785 16.93213379 -22.61645508 16.2512207 C-21.8521139 14.95378756 -21.09130846 13.65426238 -20.3347168 12.35229492 C-17.48581454 7.54577067 -14.49145932 2.50798854 -9.625 -0.4375 C-6.02593587 -1.20872803 -3.55901156 -0.95330667 0 0 Z " fill="#5D3A25" transform="translate(316,1)"/>
<path d="M0 0 C3.22439677 2.65117068 5.47569953 5.12180191 7 9 C8.38338944 23.2650807 4.63190217 33.17055164 -3 45 C-3.55816406 45.61359375 -4.11632812 46.2271875 -4.69140625 46.859375 C-6.63863564 50.04469352 -6.40317292 53.24856105 -6.4375 56.875 C-6.64569473 63.97755947 -7.60587964 70.61520402 -9.0625 77.5625 C-10.89608932 86.62207278 -11.25964306 95.20868144 -11.05615234 104.43359375 C-10.88745307 113.26630387 -11.52380035 121.90687519 -12.55322266 130.67895508 C-13.19800966 136.97213878 -12.8418014 141.33279671 -10 147 C-9.24009766 148.61648437 -9.24009766 148.61648437 -8.46484375 150.265625 C-7.96082031 151.25046875 -7.45679688 152.2353125 -6.9375 153.25 C-6.43089844 154.24515625 -5.92429687 155.2403125 -5.40234375 156.265625 C-4.93957031 157.16796875 -4.47679687 158.0703125 -4 159 C-3.74017334 159.6607251 -3.48034668 160.3214502 -3.21264648 161.00219727 C-1.60491932 163.65088489 0.02859733 164.35505232 2.8046875 165.69921875 C3.775271 166.18173096 4.74585449 166.66424316 5.74584961 167.16137695 C6.77846924 167.66499756 7.81108887 168.16861816 8.875 168.6875 C20.35218936 174.47426617 30.08584383 180.80839852 39.28125 189.8828125 C40.93953216 191.20745008 40.93953216 191.20745008 43 190.8515625 C46.95343599 189.16826358 49.54278256 186.48635792 52 183 C53.19035465 179.75844599 54.078957 176.50138404 54.9765625 173.16796875 C56.79675775 167.53370026 59.8937773 163.55459295 64.625 160.0625 C69.18845781 158.02095309 72.96667946 157.73035783 78 158 C80.4375 159 80.4375 159 82 160 C81.34 160.33 80.68 160.66 80 161 C80.66 161.680625 81.32 162.36125 82 163.0625 C84.58702404 166.86219156 84.67041286 168.45609061 84 173 C81.43482659 179.63994003 77.48033157 185.55834928 73.55078125 191.45703125 C72.05210867 193.91455228 70.98376576 196.30070182 70 199 C65.57649669 198.49445676 63.21928398 197.04984798 60 194 C57.88153908 191.00493457 57 189.69349436 57 186 C56.34 186 55.68 186 55 186 C56.64059422 192.6055504 58.32359806 196.1352157 64 200 C64.66 200.33 65.32 200.66 66 201 C64.36998173 204.70888215 62.19896131 206.52411816 59.08203125 209.08984375 C54.30331458 213.47406974 47.97063483 219.33079938 47 226 C46.34 226 45.68 226 45 226 C44.67 227.32 44.34 228.64 44 230 C42.68 230 41.36 230 40 230 C39.92523438 230.71542969 39.85046875 231.43085938 39.7734375 232.16796875 C38.79199884 235.76162039 37.13052465 237.57588327 34.625 240.3125 C33.83351563 241.19550781 33.04203125 242.07851562 32.2265625 242.98828125 C30 245 30 245 27 245 C27.515625 245.53625 28.03125 246.0725 28.5625 246.625 C30 249 30 249 29.875 252 C28.99363058 255.02183802 28.21867539 256.78132461 26 259 C25.01 259 24.02 259 23 259 C23 259.99 23 260.98 23 262 C16.01718389 260.91645957 10.42399088 258.39264876 4.1953125 255.15234375 C-0.93107151 252.49012798 -6.15498091 250.03449287 -11.375 247.5625 C-12.32149414 247.11326172 -13.26798828 246.66402344 -14.24316406 246.20117188 C-16.49486061 245.13287892 -18.74712714 244.06580945 -21 243 C-19.53016692 240.03847759 -17.98799216 237.13640703 -16.375 234.25 C-15.70597656 233.05117188 -15.70597656 233.05117188 -15.0234375 231.828125 C-14.68570313 231.22484375 -14.34796875 230.6215625 -14 230 C-14.66 230 -15.32 230 -16 230 C-16.268125 230.721875 -16.53625 231.44375 -16.8125 232.1875 C-18.00626144 235.01482972 -19.21484551 237.50078372 -21 240 C-21.99 240 -22.98 240 -24 240 C-23.33501617 235.61110675 -21.81242323 232.0188515 -20 228 C-22.38672669 230.96283313 -24.7353371 233.94270509 -27 237 C-27 236.34 -27 235.68 -27 235 C-27.99 235 -28.98 235 -30 235 C-29.34 231.7 -28.68 228.4 -28 225 C-30.71843438 228.62457917 -31.41789544 229.80884715 -32 234 C-32.99257813 233.73445312 -33.98515625 233.46890625 -35.0078125 233.1953125 C-42.85726589 231.13929477 -50.55604612 229.54481721 -58.61328125 228.48828125 C-67.08927663 227.26625193 -75.80295474 225.84416508 -83 221 C-84 217.75 -84 217.75 -84 215 C-84.66 215 -85.32 215 -86 215 C-85.125 211.125 -85.125 211.125 -84 210 C-83.96127774 208.0927872 -83.9885206 206.1841724 -84.04296875 204.27734375 C-84.06423828 203.09849609 -84.08550781 201.91964844 -84.10742188 200.70507812 C-84.16023231 198.2204114 -84.2250678 195.73596713 -84.30273438 193.25195312 C-84.42297367 185.04450772 -83.8838203 179.532691 -78.38671875 173.1171875 C-73.36352159 169.44505716 -68.10816636 167.2800029 -62.19213867 165.44287109 C-58.51463254 164.16928818 -57.14145494 163.24640538 -55.18359375 159.8359375 C-54.75116731 158.56960522 -54.35795329 157.289364 -54 156 C-53.80913818 155.3299292 -53.61827637 154.6598584 -53.42163086 153.96948242 C-52.85754658 151.84255432 -52.35805413 149.70919254 -51.875 147.5625 C-51.70613281 146.85029297 -51.53726563 146.13808594 -51.36328125 145.40429688 C-49.5218726 137.42244286 -48.87514867 129.75342433 -48.9296875 121.5859375 C-48.86793442 86.39089434 -48.86793442 86.39089434 -42.69921875 70.80078125 C-40.61222804 65.43758361 -40.03402512 60.0684956 -39.4375 54.375 C-38.49337275 45.84818852 -36.66639639 39.33127472 -32 32 C-31.5359375 31.20464844 -31.071875 30.40929687 -30.59375 29.58984375 C-29.64840822 27.97488488 -28.68444472 26.37069708 -27.703125 24.77734375 C-26.37692674 22.61466723 -25.07936976 20.44236847 -23.796875 18.25390625 C-23.40733643 17.59302002 -23.01779785 16.93213379 -22.61645508 16.2512207 C-21.8521139 14.95378756 -21.09130846 13.65426238 -20.3347168 12.35229492 C-17.48581454 7.54577067 -14.49145932 2.50798854 -9.625 -0.4375 C-6.02593587 -1.20872803 -3.55901156 -0.95330667 0 0 Z " fill="#5C3A25" transform="translate(316,1)"/>
<path d="M0 0 C2.0625 0.4375 2.0625 0.4375 4 1 C3.3503125 2.03060547 3.3503125 2.03060547 2.6875 3.08203125 C2.130625 3.98308594 1.57375 4.88414062 1 5.8125 C0.443125 6.70582031 -0.11375 7.59914062 -0.6875 8.51953125 C-2.23384792 10.97422623 -2.23384792 10.97422623 -2 14 C-1.63648438 13.22076172 -1.63648438 13.22076172 -1.265625 12.42578125 C0.77136078 8.18728392 2.87828828 4.56767054 6 1 C10.46964258 1.51322931 13.30077697 2.5250642 17 5.0625 C26.59864076 11.42241572 36.61454649 17.02263979 47 22 C47.66 21.34 48.32 20.68 49 20 C50.83651979 21.34984204 52.66903225 22.70513653 54.5 24.0625 C55.04591797 24.46645996 55.59183594 24.87041992 56.15429688 25.28662109 C60.11099353 28.24715295 63.7602405 31.40813207 67.28125 34.8828125 C68.93953216 36.20745008 68.93953216 36.20745008 71 35.8515625 C74.95343599 34.16826358 77.54278256 31.48635792 80 28 C81.19035465 24.75844599 82.078957 21.50138404 82.9765625 18.16796875 C84.79675775 12.53370026 87.8937773 8.55459295 92.625 5.0625 C97.18845781 3.02095309 100.96667946 2.73035783 106 3 C108.4375 4 108.4375 4 110 5 C109.34 5.33 108.68 5.66 108 6 C108.99 7.0209375 108.99 7.0209375 110 8.0625 C112.58702404 11.86219156 112.67041286 13.45609061 112 18 C109.43482659 24.63994003 105.48033157 30.55834928 101.55078125 36.45703125 C100.05210867 38.91455228 98.98376576 41.30070182 98 44 C93.57649669 43.49445676 91.21928398 42.04984798 88 39 C85.88153908 36.00493457 85 34.69349436 85 31 C84.34 31 83.68 31 83 31 C84.64059422 37.6055504 86.32359806 41.1352157 92 45 C92.66 45.33 93.32 45.66 94 46 C92.36998173 49.70888215 90.19896131 51.52411816 87.08203125 54.08984375 C82.30331458 58.47406974 75.97063483 64.33079938 75 71 C74.34 71 73.68 71 73 71 C72.505 72.98 72.505 72.98 72 75 C70.68 75 69.36 75 68 75 C67.92910156 75.71542969 67.85820312 76.43085938 67.78515625 77.16796875 C66.77620031 80.80723769 65.0209574 82.58349571 62.4375 85.3125 C61.61121094 86.19550781 60.78492188 87.07851562 59.93359375 87.98828125 C59.29550781 88.65214844 58.65742188 89.31601563 58 90 C43.25236644 86.27764057 28.52297507 79.53264266 16.5703125 70.078125 C9.09683105 64.18992749 1.16794773 62.71234291 -8 61 C-10.04937325 53.21726112 -11.49155247 46.06510168 -11 38 C-9.730447 37.35165346 -8.45930294 36.70642185 -7.1875 36.0625 C-6.12595703 35.52302734 -6.12595703 35.52302734 -5.04296875 34.97265625 C-0.24622176 32.68892776 4.07363439 32.14698066 9.24462891 33.65429688 C11.80779439 34.60759627 14.30809747 35.65147641 16.8125 36.75 C17.72813721 37.14687012 18.64377441 37.54374023 19.5871582 37.95263672 C28.42348087 41.93466726 36.26656513 47.036797 44.12011719 52.67529297 C45.76677079 53.83564913 47.46224068 54.92608576 49.1640625 56.00390625 C54.44426567 59.36049558 57.1444533 62.25853111 59.83984375 67.91015625 C61.63587839 71.1454375 64.02471832 72.85502949 67 75 C65.42486134 72.24350734 63.82094214 69.78001463 61.8125 67.3125 C60 65 60 65 60 63 C61.98 63.495 61.98 63.495 64 64 C63.83484847 62.07645559 63.83484847 62.07645559 63 60 C61.03617283 58.52203442 61.03617283 58.52203442 58.5625 57.3125 C54.67649222 55.12250409 51.54314888 52.82345288 48.3125 49.75 C37.91279989 40.09777834 25.96624526 33.55485735 13 28 C11.86175781 27.48179687 10.72351563 26.96359375 9.55078125 26.4296875 C5.16991211 24.66577319 0.77257633 23.6194778 -3.83398438 22.62695312 C-8.63843036 21.46826232 -8.63843036 21.46826232 -10.4296875 19.1484375 C-11.71795841 14.29536214 -11.72158516 9.69572512 -9.75 5.0625 C-7.94843031 2.93922143 -6.58484592 1.9804588 -4 1 C-4.28875 1.639375 -4.5775 2.27875 -4.875 2.9375 C-6.3247725 6.88410292 -7.15778062 10.8874607 -8 15 C-7.34 15 -6.68 15 -6 15 C-6.103125 14.175 -6.20625 13.35 -6.3125 12.5 C-5.88054785 7.6621359 -3.46179971 3.46179971 0 0 Z " fill="#6F472A" transform="translate(288,156)"/>
<path d="M0 0 C0.91563721 0.39687012 1.83127441 0.79374023 2.7746582 1.20263672 C11.61098087 5.18466726 19.45406513 10.286797 27.30761719 15.92529297 C28.95427079 17.08564913 30.64974068 18.17608576 32.3515625 19.25390625 C37.58340548 22.57975334 40.29170869 25.42964448 42.9609375 31.02734375 C45.01067515 34.74167726 48.05331272 37.44097336 51.1875 40.25 C49.67196596 43.72775179 47.6101544 46.2057984 45.0625 49 C44.33804688 49.79921875 43.61359375 50.5984375 42.8671875 51.421875 C42.31289063 52.02515625 41.75859375 52.6284375 41.1875 53.25 C26.43986644 49.52764057 11.71047507 42.78264266 -0.2421875 33.328125 C-7.71566895 27.43992749 -15.64455227 25.96234291 -24.8125 24.25 C-26.86187325 16.46726112 -28.30405247 9.31510168 -27.8125 1.25 C-26.542947 0.60165346 -25.27180294 -0.04357815 -24 -0.6875 C-23.29230469 -1.04714844 -22.58460938 -1.40679687 -21.85546875 -1.77734375 C-13.91014284 -5.56010886 -7.57370148 -3.32210565 0 0 Z " fill="#B98552" transform="translate(304.8125,192.75)"/>
<path d="M0 0 C2 1.609375 2 1.609375 4 3.75 C9.36217939 8.80832256 14.94085605 10.34317221 22 12 C22.79535156 12.20109375 23.59070313 12.4021875 24.41015625 12.609375 C27.55660485 13.36315216 30.65366303 13.95753361 33.8671875 14.3515625 C41.58482324 15.35308775 46.60442208 17.66596519 53 22 C62.38897505 28.01889261 71.96612219 33.1569473 82 38 C81.46370376 40.2852984 80.87998975 42.27531763 79.9375 44.4375 C78.94788438 47.14244935 78.83688066 49.14541159 79 52 C81.64 53.32 84.28 54.64 87 56 C82.21421953 57.19644512 81.18345291 56.49886027 76.8359375 54.4296875 C76.24382477 54.15158234 75.65171204 53.87347717 75.04165649 53.58694458 C73.14738062 52.69386437 71.26136116 51.7846592 69.375 50.875 C68.12940343 50.28540683 66.88331362 49.6968545 65.63671875 49.109375 C58.71079142 45.83409003 51.83450161 42.46188833 45 39 C46.46983308 36.03847759 48.01200784 33.13640703 49.625 30.25 C50.07101562 29.45078125 50.51703125 28.6515625 50.9765625 27.828125 C51.48316406 26.92320312 51.48316406 26.92320312 52 26 C51.34 26 50.68 26 50 26 C49.731875 26.721875 49.46375 27.44375 49.1875 28.1875 C47.99373856 31.01482972 46.78515449 33.50078372 45 36 C44.01 36 43.02 36 42 36 C42.66498383 31.61110675 44.18757677 28.0188515 46 24 C43.61327331 26.96283313 41.2646629 29.94270509 39 33 C39 32.34 39 31.68 39 31 C38.01 31 37.02 31 36 31 C36.66 27.7 37.32 24.4 38 21 C35.28156562 24.62457917 34.58210456 25.80884715 34 30 C33.00742187 29.73445313 32.01484375 29.46890625 30.9921875 29.1953125 C23.14273411 27.13929477 15.44395388 25.54481721 7.38671875 24.48828125 C-1.37055033 23.2256992 -9.28260377 21.38832335 -17 17 C-17.40975095 12.82054034 -17.58535315 10.74499491 -14.9375 7.375 C-13.968125 6.59125 -12.99875 5.8075 -12 5 C-11.43410156 4.53207031 -10.86820313 4.06414062 -10.28515625 3.58203125 C-6.76506645 0.8322018 -4.63704643 -0.67981391 0 0 Z " fill="#B88451" transform="translate(250,205)"/>
<path d="M0 0 C3.22439677 2.65117068 5.47569953 5.12180191 7 9 C8.39657111 23.40100597 4.50393325 33.00757088 -3 45 C-3.36222656 45.64453125 -3.72445313 46.2890625 -4.09765625 46.953125 C-6.46265402 51.00740689 -9.59199552 53.50831788 -14 55 C-19.00585422 55.78870372 -23.41172362 55.66119587 -27.9375 53.25 C-32.76382792 49.70412643 -32.76382792 49.70412643 -34 47 C-33.6142565 41.7249677 -32.2268334 37.90336699 -29.76171875 33.25390625 C-29.43967972 32.63909897 -29.11764069 32.02429169 -28.7858429 31.39085388 C-27.76276865 29.44276268 -26.72562441 27.50260532 -25.6875 25.5625 C-25.00227789 24.26548981 -24.31802479 22.96796721 -23.63476562 21.66992188 C-22.64498342 19.79016505 -21.65389589 17.91121296 -20.65657043 16.03544617 C-18.92974006 12.78643378 -17.25568976 9.52060091 -15.6484375 6.2109375 C-12.14032244 -0.6224051 -7.25177706 -1.75042894 0 0 Z " fill="#EFCC4D" transform="translate(316,1)"/>
<path d="M0 0 C2.0625 0.4375 2.0625 0.4375 4 1 C3.3503125 2.03060547 3.3503125 2.03060547 2.6875 3.08203125 C2.130625 3.98308594 1.57375 4.88414062 1 5.8125 C0.443125 6.70582031 -0.11375 7.59914062 -0.6875 8.51953125 C-2.23384792 10.97422623 -2.23384792 10.97422623 -2 14 C-1.63648438 13.22076172 -1.63648438 13.22076172 -1.265625 12.42578125 C0.77136078 8.18728392 2.87828828 4.56767054 6 1 C10.46964258 1.51322931 13.30077697 2.5250642 17 5.0625 C26.59864076 11.42241572 36.61454649 17.02263979 47 22 C47.66 21.34 48.32 20.68 49 20 C49.99 20.99 50.98 21.98 52 23 C51.50628906 23.39832031 51.01257813 23.79664063 50.50390625 24.20703125 C49.86324219 24.73683594 49.22257812 25.26664063 48.5625 25.8125 C47.92441406 26.33457031 47.28632813 26.85664063 46.62890625 27.39453125 C44.7451725 29.00834411 44.7451725 29.00834411 44 32 C44.86625 30.7934375 44.86625 30.7934375 45.75 29.5625 C47.98126893 27.02133261 48.74456771 26.34879632 52 26 C50.18690997 29.77727089 48.0926741 33.37269822 46 37 C46.66 37 47.32 37 48 37 C48.268125 36.236875 48.53625 35.47375 48.8125 34.6875 C50.62637363 30.58241758 50.62637363 30.58241758 53 29 C55.6875 29.3125 55.6875 29.3125 58 30 C58 33 58 33 55.625 35.5 C54.75875 36.325 53.8925 37.15 53 38 C50.74009367 40.84290257 50.74009367 40.84290257 50.8125 44.1875 C52.57533406 49.84712514 56.50299933 52.37084157 61 56 C62.01539877 56.98436037 63.02232036 57.97816708 64 59 C57.53661852 58.59603866 53.00926046 53.74332893 48.34375 49.6953125 C37.63034817 40.4506835 26.07593481 33.46159472 13 28 C11.90300781 27.50113281 10.80601562 27.00226563 9.67578125 26.48828125 C5.24793354 24.695497 0.82461107 23.63068915 -3.83398438 22.62695312 C-8.63843036 21.46826232 -8.63843036 21.46826232 -10.4296875 19.1484375 C-11.71795841 14.29536214 -11.72158516 9.69572512 -9.75 5.0625 C-7.94843031 2.93922143 -6.58484592 1.9804588 -4 1 C-4.28875 1.639375 -4.5775 2.27875 -4.875 2.9375 C-6.3247725 6.88410292 -7.15778062 10.8874607 -8 15 C-7.34 15 -6.68 15 -6 15 C-6.103125 14.175 -6.20625 13.35 -6.3125 12.5 C-5.88054785 7.6621359 -3.46179971 3.46179971 0 0 Z " fill="#B98552" transform="translate(288,156)"/>
<path d="M0 0 C8.00371979 0.36714311 15.686392 1.85327014 23.50610352 3.48730469 C29.30927875 4.69296108 35.08602493 5.65298181 40.98046875 6.3125 C49.43753167 8.23804085 49.43753167 8.23804085 53 11 C54.54184262 14.36039731 54.79798527 17.65212 55.0625 21.3125 C55.16498047 22.23740234 55.26746094 23.16230469 55.37304688 24.11523438 C55.64761003 26.74319603 55.84039426 29.36284213 56 32 C56.08636719 33.26328125 56.17273438 34.5265625 56.26171875 35.828125 C55.9515085 39.58768808 54.94963271 41.40145233 52.75 44.4375 C52.14671875 45.30246094 51.5434375 46.16742188 50.921875 47.05859375 C50.28765625 47.69925781 49.6534375 48.33992188 49 49 C47.68 49 46.36 49 45 49 C43.21875 46.8046875 43.21875 46.8046875 41.5 43.875 C40.89800781 42.87597656 40.29601562 41.87695312 39.67578125 40.84765625 C39.12277344 39.90792969 38.56976563 38.96820313 38 38 C36.72604202 35.9263884 35.43603101 33.96789435 34 32 C33.34 32 32.68 32 32 32 C30.59585169 33.46201572 30.59585169 33.46201572 29.1875 35.3125 C26.73713141 38.26612278 24.57142349 40.41270067 21 42 C20.34 41.67 19.68 41.34 19 41 C19.48210937 40.35933594 19.96421875 39.71867187 20.4609375 39.05859375 C24.0757445 34.1085213 26.8175175 30.04379942 28 24 C27.50371094 24.40992188 27.00742187 24.81984375 26.49609375 25.2421875 C22.06026897 28.76054568 18.55087651 30.84356739 13 32 C13.58007812 31.27296875 13.58007812 31.27296875 14.171875 30.53125 C17.77941954 25.88787584 20.52402614 21.33286677 23 16 C21.9275 16.61875 20.855 17.2375 19.75 17.875 C19.110625 18.23722656 18.47125 18.59945313 17.8125 18.97265625 C16.45298486 19.74324349 15.09984244 20.52509191 13.75 21.3125 C12 22 12 22 9 21 C9.45890625 20.63648438 9.9178125 20.27296875 10.390625 19.8984375 C14.43493987 16.58481817 17.32533314 13.49344033 20 9 C19.67 8.67 19.34 8.34 19 8 C17.9171875 8.928125 17.9171875 8.928125 16.8125 9.875 C12.56042203 13.08768114 9.33388269 14.3047933 4 14 C4.7425 13.4225 5.485 12.845 6.25 12.25 C8.66087643 10.27746474 10.84042701 8.23955718 13 6 C12.505 6.33 12.01 6.66 11.5 7 C7.82993959 8.46802416 4.9490882 8.25477988 1 8 C0.34 7.34 -0.32 6.68 -1 6 C1.64 5.67 4.28 5.34 7 5 C3.535 3.02 3.535 3.02 0 1 C0 0.67 0 0.34 0 0 Z " fill="#B88451" transform="translate(247,243)"/>
<path d="M0 0 C0.33 0 0.66 0 1 0 C1.09744014 8.72630608 1.16711095 17.33003296 0 26 C-0.33 26 -0.66 26 -1 26 C-1.33 24.02 -1.66 22.04 -2 20 C-2.33 20 -2.66 20 -3 20 C-3.66 28.25 -4.32 36.5 -5 45 C-17.375 50.625 -17.375 50.625 -22 51 C-21.90150757 49.78642822 -21.90150757 49.78642822 -21.80102539 48.54833984 C-21.06079695 38.9083768 -20.69787675 29.28763443 -20.4375 19.625 C-20.3941537 18.09895054 -20.35053531 16.57290878 -20.30664062 15.046875 C-20.20130413 11.36466642 -20.09960138 7.68236872 -20 4 C-18.91332031 3.90912109 -18.91332031 3.90912109 -17.8046875 3.81640625 C-16.83789062 3.73261719 -15.87109375 3.64882812 -14.875 3.5625 C-13.92367188 3.48128906 -12.97234375 3.40007812 -11.9921875 3.31640625 C-8.97963891 2.99784693 -5.98812716 2.49802119 -3 2 C-2.67 6.29 -2.34 10.58 -2 15 C-1.34 15 -0.68 15 0 15 C0 10.05 0 5.1 0 0 Z " fill="#B58353" transform="translate(304,99)"/>
<path d="M0 0 C7.42857143 -0.28571429 7.42857143 -0.28571429 11 2 C10.01 2.495 10.01 2.495 9 3 C9.99 4.0209375 9.99 4.0209375 11 5.0625 C13.58702404 8.86219156 13.67041286 10.45609061 13 15 C10.43482659 21.63994003 6.48033157 27.55834928 2.55078125 33.45703125 C1.05210867 35.91455228 -0.01623424 38.30070182 -1 41 C-5.44784203 40.4916752 -7.83569223 39.16430777 -11 36 C-14.7167915 30.66616285 -16.11467489 25.4403438 -15 19 C-12.73395131 12.26244347 -8.91981062 7.45990531 -2.5 4.25 C0.36737892 3.2259361 2.99880892 2.45472592 6 2 C3.03 1.505 3.03 1.505 0 1 C0 0.67 0 0.34 0 0 Z " fill="#B98656" transform="translate(387,159)"/>
<path d="M0 0 C5.28 0 10.56 0 16 0 C16 7.2680911 15.28825744 13.69682947 14.125 20.8125 C13.86396484 22.50922852 13.86396484 22.50922852 13.59765625 24.24023438 C13.33662109 25.86348633 13.33662109 25.86348633 13.0703125 27.51953125 C12.91320801 28.50026611 12.75610352 29.48100098 12.59423828 30.49145508 C12 33 12 33 10 36 C4.55475864 38.65280989 -1.09229323 38.18921481 -7 38 C-6.74605469 36.84886719 -6.49210937 35.69773438 -6.23046875 34.51171875 C-3.74172376 23.05888301 -1.71365836 11.59315844 0 0 Z " fill="#B88453" transform="translate(290,57)"/>
<path d="M0 0 C-0.01571045 0.65484375 -0.0314209 1.3096875 -0.04760742 1.984375 C-0.11047934 4.98949331 -0.14915488 7.99447263 -0.1875 11 C-0.21263672 12.02996094 -0.23777344 13.05992187 -0.26367188 14.12109375 C-0.3238889 20.42380936 0.23446843 25.32175836 3 31 C3.50660156 32.07765625 4.01320313 33.1553125 4.53515625 34.265625 C5.03917969 35.25046875 5.54320312 36.2353125 6.0625 37.25 C6.56910156 38.24515625 7.07570313 39.2403125 7.59765625 40.265625 C8.06042969 41.16796875 8.52320313 42.0703125 9 43 C9.2563623 43.65637451 9.51272461 44.31274902 9.77685547 44.98901367 C11.41595831 47.68388195 13.17678264 48.48047927 15.97265625 49.91015625 C16.95427734 50.42513672 17.93589844 50.94011719 18.94726562 51.47070312 C19.97529297 51.99599609 21.00332031 52.52128906 22.0625 53.0625 C24.09957126 54.1071193 26.1323798 55.16010673 28.16015625 56.22265625 C29.06386963 56.68422119 29.96758301 57.14578613 30.89868164 57.62133789 C33 59 33 59 34 62 C27.71109557 60.15887658 22.32541842 57.73509258 16.75 54.3125 C16.02200195 53.87768311 15.29400391 53.44286621 14.54394531 52.99487305 C11.05160557 50.8998513 7.59911237 48.75527578 4.1875 46.53125 C3.31206543 45.96796997 3.31206543 45.96796997 2.41894531 45.39331055 C0.84841902 44.37623625 -0.70909091 43.33914273 -2.265625 42.30078125 C-4.90058851 40.79701076 -4.90058851 40.79701076 -7.69140625 41.0546875 C-10.49614946 42.20316103 -11.22387306 43.19158664 -12.6875 45.8125 C-13.08324219 46.49957031 -13.47898437 47.18664062 -13.88671875 47.89453125 C-14.95532421 49.91550788 -15.99057141 51.94887798 -17 54 C-17.68359375 52.328125 -17.68359375 52.328125 -18 50 C-16.78515625 47.421875 -16.78515625 47.421875 -15.0625 44.75 C-14.49660156 43.85796875 -13.93070312 42.9659375 -13.34765625 42.046875 C-12.90292969 41.37140625 -12.45820313 40.6959375 -12 40 C-13.9342287 40.26266118 -13.9342287 40.26266118 -16 41 C-18.97319519 45.33237013 -20.48316747 48.7024666 -21 54 C-21.66 54 -22.32 54 -23 54 C-22.6083965 48.04492601 -21.62875405 43.37180176 -19 38 C-19.99 37.67 -20.98 37.34 -22 37 C-22 34 -22 34 -20 32 C-18.41602769 31.43930184 -16.80728033 30.94683595 -15.1875 30.5 C-11.68415081 29.52478631 -8.36781055 28.37062466 -5 27 C-4.9498877 26.21761963 -4.89977539 25.43523926 -4.84814453 24.62915039 C-4.61696837 21.10620393 -4.37118589 17.584428 -4.125 14.0625 C-4.04636719 12.83080078 -3.96773438 11.59910156 -3.88671875 10.33007812 C-3.80292969 9.16025391 -3.71914063 7.99042969 -3.6328125 6.78515625 C-3.52283936 5.15912476 -3.52283936 5.15912476 -3.41064453 3.50024414 C-3.27513184 2.67516357 -3.13961914 1.85008301 -3 1 C-1 0 -1 0 0 0 Z " fill="#664128" transform="translate(303,117)"/>
<path d="M0 0 C12.82566908 1.6426318 21.81483982 4.3782006 32.13671875 12.18359375 C35.90823314 15.02443741 39.8299296 17.2343853 44.0625 19.3125 C44.71452393 19.63283203 45.36654785 19.95316406 46.03833008 20.28320312 C51.94057325 23.09860311 58.02342372 25.39412311 64.18359375 27.578125 C67 29 67 29 67.859375 31.0234375 C67.90578125 31.67570312 67.9521875 32.32796875 68 33 C68.4021875 34.175625 68.4021875 34.175625 68.8125 35.375 C69.09107279 39.2750191 67.44465931 41.07999027 65 44 C64.01 44 63.02 44 62 44 C62 44.99 62 45.98 62 47 C59.21255223 46.07085074 57.26759581 45.00715142 54.8125 43.4375 C54.09707031 42.98246094 53.38164062 42.52742188 52.64453125 42.05859375 C51.83048828 41.53458984 51.83048828 41.53458984 51 41 C51.33990833 35.62007164 51.68557793 31.46726453 55 27 C54.20078125 26.76667969 53.4015625 26.53335938 52.578125 26.29296875 C48.08103642 24.6679291 43.9697418 22.54856334 39.75 20.3125 C38.9053418 19.86769287 38.06068359 19.42288574 37.19042969 18.96459961 C31.8397162 16.1031535 26.87375159 12.97640099 21.96875 9.3984375 C15.04293389 4.47890939 7.21824779 3.96886416 -1 3 C-0.67 2.01 -0.34 1.02 0 0 Z " fill="#613C27" transform="translate(277,216)"/>
<path d="M0 0 C2.92735388 1.15940001 5.20478175 2.81501703 7.7421875 4.67578125 C8.69222656 5.36285156 9.64226562 6.04992187 10.62109375 6.7578125 C12.95713281 8.68014083 14.62440178 10.28161168 16.1796875 12.86328125 C16.1796875 16.81077755 15.65933863 18.35698284 12.9296875 21.23828125 C9.81845853 23.07673473 8.71556613 23.31105627 5.1796875 22.86328125 C2.35546875 21.21875 2.35546875 21.21875 -0.5078125 19.05078125 C-1.93673828 17.98923828 -1.93673828 17.98923828 -3.39453125 16.90625 C-5.8203125 14.86328125 -5.8203125 14.86328125 -7.8203125 11.86328125 C-7.73901951 7.47345976 -7.20837795 5.3667175 -4.5078125 1.86328125 C-1.8203125 -0.13671875 -1.8203125 -0.13671875 0 0 Z " fill="#BC8955" transform="translate(348.8203125,190.13671875)"/>
<path d="M0 0 C1.07031153 1.60546729 2.12675472 3.22365779 3.078125 4.90234375 C5.81710692 9.65904234 8.19967462 12.32074863 13 15 C11.63698986 18.09122875 10.81409143 19.15030906 8.0625 21.375 C2.05446834 26.26289016 -2.35184159 32.86409469 -7 39 C-10.77070649 37.3327868 -12.0709374 35.66521894 -14 32 C-13.38511719 31.70867187 -12.77023437 31.41734375 -12.13671875 31.1171875 C-8.24756203 29.14469653 -5.498663 27.67466171 -2.875 24.125 C-1.80411454 20.30040907 -1.98848936 17.82929029 -3 14 C-3.53625 13.46375 -4.0725 12.9275 -4.625 12.375 C-5.07875 11.92125 -5.5325 11.4675 -6 11 C-6 6.09930497 -3.12713557 3.44786742 0 0 Z " fill="#B58253" transform="translate(369,187)"/>
<path d="M0 0 C-0.01571045 0.65484375 -0.0314209 1.3096875 -0.04760742 1.984375 C-0.11047934 4.98949331 -0.14915488 7.99447263 -0.1875 11 C-0.21263672 12.02996094 -0.23777344 13.05992187 -0.26367188 14.12109375 C-0.32510902 20.55151454 0.44925119 25.10850668 3 31 C3 31.99 3 32.98 3 34 C2.34 33.67 1.68 33.34 1 33 C1.474375 34.093125 1.94875 35.18625 2.4375 36.3125 C3.40187809 38.53476255 4.23166828 40.69500485 5 43 C1.92117788 41.8454417 -0.92874543 40.50166668 -3.8125 38.9375 C-9.66940018 35.97044511 -15.4839885 35.83709971 -22 36 C-22 34 -22 34 -20 32 C-18.41602769 31.43930184 -16.80728033 30.94683595 -15.1875 30.5 C-11.68415081 29.52478631 -8.36781055 28.37062466 -5 27 C-4.9498877 26.21761963 -4.89977539 25.43523926 -4.84814453 24.62915039 C-4.61696837 21.10620393 -4.37118589 17.584428 -4.125 14.0625 C-4.04636719 12.83080078 -3.96773438 11.59910156 -3.88671875 10.33007812 C-3.80292969 9.16025391 -3.71914063 7.99042969 -3.6328125 6.78515625 C-3.52283936 5.15912476 -3.52283936 5.15912476 -3.41064453 3.50024414 C-3.27513184 2.67516357 -3.13961914 1.85008301 -3 1 C-1 0 -1 0 0 0 Z " fill="#70472C" transform="translate(303,117)"/>
<path d="M0 0 C5.28990157 0.42891094 9.44083841 2.49044761 14.1640625 4.72265625 C18.03155354 6.46462535 21.95257934 7.73932799 26 9 C23.23997886 11.92574989 20.47906555 14.19096546 17.0625 16.3125 C16.22847656 16.84488281 15.39445312 17.37726563 14.53515625 17.92578125 C11.45429037 19.23123289 10.10347482 19.21148934 7 18 C2.61580971 12.92476163 1.12545606 6.44579379 0 0 Z " fill="#B58050" transform="translate(301,255)"/>
<path d="M0 0 C0 3 0 3 -1.44140625 4.7265625 C-11.57423164 13.79572113 -23.92587001 22.64699436 -37.9140625 22.45703125 C-42.85179254 21.72574718 -46.37175182 19.34352018 -50 16 C-50.66 15.01 -51.32 14.02 -52 13 C-47 15 -47 15 -44.75 16.125 C-36.14571452 18.8627272 -29.37934187 16.00280544 -21.5625 12.4375 C-20.58990234 12.01919922 -19.61730469 11.60089844 -18.61523438 11.16992188 C-11.83406063 8.15757683 -5.92402614 4.45743379 0 0 Z " fill="#BB885B" transform="translate(302,310)"/>
<path d="M0 0 C4.13606764 0.60824524 7.46058648 1.74764594 11 4 C12.41268718 7.15777134 12.15270648 8.54188055 11.0625 11.8125 C9 14 9 14 5.125 14.4375 C1.76968584 14.23320965 -0.97016593 13.51491704 -4 12 C-3.28571429 3.42857143 -3.28571429 3.42857143 0 0 Z " fill="#BC8856" transform="translate(334,245)"/>
<path d="M0 0 C0.66 0.66 1.32 1.32 2 2 C0.89591797 2.16435547 0.89591797 2.16435547 -0.23046875 2.33203125 C-7.24042298 3.47103306 -12.25556476 4.31270858 -16.625 10.25 C-20.16808747 16.19612786 -20.92083513 23.2617998 -22 30 C-22.66 29.34 -23.32 28.68 -24 28 C-24.78375 28.928125 -25.5675 29.85625 -26.375 30.8125 C-26.81585938 31.33457031 -27.25671875 31.85664063 -27.7109375 32.39453125 C-28.89201099 33.8655046 -29.95358529 35.43037794 -31 37 C-32.65 35.68 -34.3 34.36 -36 33 C-35.29875 32.62875 -34.5975 32.2575 -33.875 31.875 C-26.21052988 26.87643253 -24.44211782 22.86688882 -22.05859375 14.203125 C-20.2175186 8.63234409 -17.08076366 4.8495677 -12.75 1 C-8.59753356 -0.5099878 -4.37025532 -0.59559232 0 0 Z " fill="#6B4B35" transform="translate(393,160)"/>
<path d="M0 0 C0.66 0 1.32 0 2 0 C2.67563289 13.09977103 0.66154299 25.2019422 -2 38 C-2.99 37.67 -3.98 37.34 -5 37 C-4.3653397 26.23265975 -2.67880003 15.64450817 -1 5 C-1.91700684 5.24447876 -1.91700684 5.24447876 -2.85253906 5.49389648 C-5.22480095 6.05298003 -7.31647115 6.09828719 -9.75 6.0625 C-10.54921875 6.05347656 -11.3484375 6.04445313 -12.171875 6.03515625 C-12.77515625 6.02355469 -13.3784375 6.01195312 -14 6 C-11.14184349 3.14184349 -8.21030676 3.19702668 -4.3125 2.5625 C-1.82242883 2.16906013 -1.82242883 2.16906013 0 0 Z " fill="#654330" transform="translate(307,52)"/>
<path d="M0 0 C0.33 0 0.66 0 1 0 C1 7.26 1 14.52 1 22 C0.34 22 -0.32 22 -1 22 C-1.33 22.66 -1.66 23.32 -2 24 C-2 19.05 -2 14.1 -2 9 C-4.64 9.66 -7.28 10.32 -10 11 C-10 10.34 -10 9.68 -10 9 C-11.3303125 9.061875 -11.3303125 9.061875 -12.6875 9.125 C-15.97277013 9.00102754 -18.05449295 8.38612096 -21 7 C-21 6.67 -21 6.34 -21 6 C-19.97519531 5.87882812 -18.95039063 5.75765625 -17.89453125 5.6328125 C-16.53381021 5.46389541 -15.1731355 5.2946048 -13.8125 5.125 C-13.13896484 5.04636719 -12.46542969 4.96773438 -11.77148438 4.88671875 C-7.91147909 4.3971571 -4.48337559 3.77120793 -1 2 C-0.67 1.34 -0.34 0.68 0 0 Z " fill="#664228" transform="translate(303,92)"/>
<path d="M0 0 C-0.495 0.433125 -0.99 0.86625 -1.5 1.3125 C-3.33218192 2.99740483 -3.33218192 2.99740483 -3 6 C-3.99 6.495 -3.99 6.495 -5 7 C-3.20142332 9.5609294 -3.20142332 9.5609294 -1 12 C-0.01 12 0.98 12 2 12 C2 12.66 2 13.32 2 14 C1.34 14 0.68 14 0 14 C-0.33 15.32 -0.66 16.64 -1 18 C-2.32 18 -3.64 18 -5 18 C-5.33 18.66 -5.66 19.32 -6 20 C-6.3403125 18.700625 -6.3403125 18.700625 -6.6875 17.375 C-7.83205972 14.43184642 -8.63186882 13.04238317 -10.625 10.75 C-13 8 -13 8 -13 6 C-11.68 6.33 -10.36 6.66 -9 7 C-9.33 5.35 -9.66 3.7 -10 2 C-9.34 1.67 -8.68 1.34 -8 1 C-7.34 1.33 -6.68 1.66 -6 2 C-6 1.34 -6 0.68 -6 0 C-2.25 -1.125 -2.25 -1.125 0 0 Z " fill="#684028" transform="translate(361,213)"/>
<path d="M0 0 C2.22394401 2.11274681 3.98940733 4.30513909 5.75 6.8125 C11.87224619 15.01570672 18.07419126 18.60107948 28 21 C28 21.66 28 22.32 28 23 C20.86487554 23.66065967 15.9452591 22.00869261 10 18 C5.19093663 13.69525788 2.03601425 9.10804275 0 3 C0 2.01 0 1.02 0 0 Z " fill="#B78356" transform="translate(245,301)"/>
<path d="M0 0 C1.1328125 1.9609375 1.1328125 1.9609375 2.125 4.375 C2.45757812 5.16648438 2.79015625 5.95796875 3.1328125 6.7734375 C3.80422288 8.49732902 4.41497061 10.24491183 5 12 C1.92117788 10.8454417 -0.92874543 9.50166668 -3.8125 7.9375 C-9.66940018 4.97044511 -15.4839885 4.83709971 -22 5 C-22 4.34 -22 3.68 -22 3 C-21.21496094 2.87882813 -20.42992187 2.75765625 -19.62109375 2.6328125 C-12.70310995 1.56277374 -12.70310995 1.56277374 -5.9375 -0.1875 C-3 -1 -3 -1 0 0 Z " fill="#B68353" transform="translate(303,148)"/>
<path d="M0 0 C4.34151939 0.10589072 6.69840582 1.24896674 9.8125 4.125 C12.16238975 6.68376884 13.04221029 8.12440928 14.1875 11.5 C13.95194553 15.89701683 12.79340369 18.62172742 10 22 C5.93548387 25 5.93548387 25 3 25 C4.23648728 22.18980165 5.78671435 20.00626203 7.6875 17.625 C9.59623492 14.97995784 9.99195662 14.2051062 10.125 10.8125 C8.72141604 7.3035401 7.07327429 6.14414485 4 4 C2.64852862 2.68505488 1.30887458 1.35735142 0 0 Z " fill="#5B3721" transform="translate(354,193)"/>
<path d="M0 0 C0.02913821 3.5624827 0.04684529 7.12493454 0.0625 10.6875 C0.07087891 11.69490234 0.07925781 12.70230469 0.08789062 13.74023438 C0.09111328 14.71669922 0.09433594 15.69316406 0.09765625 16.69921875 C0.10289307 17.59471436 0.10812988 18.49020996 0.11352539 19.4128418 C-0.00159802 22.03641759 -0.41765715 24.44293053 -1 27 C-1.66 27 -2.32 27 -3 27 C-3 18.42 -3 9.84 -3 1 C-1 0 -1 0 0 0 Z " fill="#624231" transform="translate(303,117)"/>
<path d="M0 0 C4.78066303 1.76884532 9.23915269 4.08318762 13.75 6.4375 C14.52988281 6.83259766 15.30976563 7.22769531 16.11328125 7.63476562 C16.85449219 8.02212891 17.59570312 8.40949219 18.359375 8.80859375 C19.03452148 9.15720459 19.70966797 9.50581543 20.40527344 9.86499023 C22 11 22 11 23 14 C14.52556968 11.66222612 7.4852274 7.4826184 0 3 C0 2.01 0 1.02 0 0 Z " fill="#704C35" transform="translate(314,165)"/>
<path d="M0 0 C0.33 0.66 0.66 1.32 1 2 C-0.59093692 6.15441648 -2.69638916 10.08712062 -4.6875 14.0625 C-5.23083984 15.18978516 -5.77417969 16.31707031 -6.33398438 17.47851562 C-6.86701172 18.54908203 -7.40003906 19.61964844 -7.94921875 20.72265625 C-8.43737061 21.71015869 -8.92552246 22.69766113 -9.4284668 23.71508789 C-11 26 -11 26 -13.19067383 26.82983398 C-13.78775146 26.88598877 -14.3848291 26.94214355 -15 27 C-13.66252058 23.46238077 -12.09562161 20.23255793 -10.21484375 16.953125 C-9.68439453 16.02628906 -9.15394531 15.09945313 -8.60742188 14.14453125 C-8.05634766 13.18933594 -7.50527344 12.23414063 -6.9375 11.25 C-6.38255859 10.27933594 -5.82761719 9.30867188 -5.25585938 8.30859375 C-1.14043257 1.14043257 -1.14043257 1.14043257 0 0 Z " fill="#7C623C" transform="translate(299,8)"/>
<path d="M0 0 C1.32 0.66 2.64 1.32 4 2 C3.0409375 2.7425 3.0409375 2.7425 2.0625 3.5 C-0.81515269 6.98806387 -0.70230736 9.53461041 -1 14 C2.63 14.66 6.26 15.32 10 16 C9.01 16.33 8.02 16.66 7 17 C7 17.99 7 18.98 7 20 C4.21255223 19.07085074 2.26759581 18.00715142 -0.1875 16.4375 C-0.90292969 15.98246094 -1.61835938 15.52742188 -2.35546875 15.05859375 C-2.89816406 14.70925781 -3.44085938 14.35992187 -4 14 C-3.66009167 8.62007164 -3.31442207 4.46726453 0 0 Z " fill="#71472B" transform="translate(332,243)"/>
<path d="M0 0 C0.66 0 1.32 0 2 0 C2 5.28 2 10.56 2 16 C1.67 16 1.34 16 1 16 C0.67 14.02 0.34 12.04 0 10 C-0.33 10 -0.66 10 -1 10 C-1 8.35 -1 6.7 -1 5 C-1.56203125 5.16371094 -2.1240625 5.32742187 -2.703125 5.49609375 C-5.13059056 6.02864997 -7.26889681 6.09898681 -9.75 6.0625 C-10.54921875 6.05347656 -11.3484375 6.04445313 -12.171875 6.03515625 C-12.77515625 6.02355469 -13.3784375 6.01195312 -14 6 C-11.14184349 3.14184349 -8.21030676 3.19702668 -4.3125 2.5625 C-1.82242883 2.16906013 -1.82242883 2.16906013 0 0 Z " fill="#755339" transform="translate(307,52)"/>
<path d="M0 0 C0.928125 0.4021875 0.928125 0.4021875 1.875 0.8125 C6.17994393 2.4483787 10.58031552 3.71271326 15 5 C15 5.66 15 6.32 15 7 C8.49686791 7.46450943 4.5825192 6.32575612 -1 3 C-0.67 2.01 -0.34 1.02 0 0 Z " fill="#AB784D" transform="translate(258,317)"/>
<path d="M0 0 C3.74879638 1.24959879 5.20967538 3.20967538 8 6 C9.25598757 6.91653147 10.52724279 7.8124865 11.8125 8.6875 C12.864375 9.450625 13.91625 10.21375 15 11 C15 11.66 15 12.32 15 13 C8.74269139 11.71644952 4.16547782 7.67459178 0 3 C0 2.01 0 1.02 0 0 Z " fill="#633F25" transform="translate(340,202)"/>
<path d="M0 0 C2.375 0.25 2.375 0.25 5 1 C6.94746449 3.94751382 7.22748966 6.26535169 7.125 9.75 C7.10695313 10.54921875 7.08890625 11.3484375 7.0703125 12.171875 C7.03550781 13.07679688 7.03550781 13.07679688 7 14 C5.68 14 4.36 14 3 14 C3.03480469 13.38511719 3.06960938 12.77023438 3.10546875 12.13671875 C3.13253906 11.32847656 3.15960938 10.52023438 3.1875 9.6875 C3.22230469 8.88699219 3.25710938 8.08648437 3.29296875 7.26171875 C2.9343151 4.49291259 2.02945675 3.81639042 0 2 C0 1.34 0 0.68 0 0 Z " fill="#60422F" transform="translate(396,162)"/>
<path d="M0 0 C0.33 0 0.66 0 1 0 C1.34803805 4.17645661 0.66218062 5.82586157 -2 9 C-2.33 9.66 -2.66 10.32 -3 11 C-4.10793257 13.21586515 -5.47228479 15.05563519 -7 17 C-8.65 15.68 -10.3 14.36 -12 13 C-11.29875 12.62875 -10.5975 12.2575 -9.875 11.875 C-5.97974701 9.33461761 -1.73803019 6.40717986 -0.328125 1.80859375 C-0.21984375 1.21175781 -0.1115625 0.61492187 0 0 Z " fill="#765742" transform="translate(369,180)"/>
<path d="M0 0 C0.33 0.99 0.66 1.98 1 3 C0.34 2.67 -0.32 2.34 -1 2 C-0.67 1.34 -0.34 0.68 0 0 Z M-3 3 C-2.34 3.33 -1.68 3.66 -1 4 C-3.64786958 6.90004763 -5.58701641 7.90849654 -9.59375 8.16796875 C-10.5528125 8.17441406 -11.511875 8.18085937 -12.5 8.1875 C-13.93859375 8.20876953 -13.93859375 8.20876953 -15.40625 8.23046875 C-18 8 -18 8 -21 6 C-19.95199219 5.86722656 -18.90398437 5.73445313 -17.82421875 5.59765625 C-16.44529222 5.41942765 -15.06638707 5.24103359 -13.6875 5.0625 C-12.65206055 4.93198242 -12.65206055 4.93198242 -11.59570312 4.79882812 C-8.59857712 4.40789865 -5.87549881 3.9584996 -3 3 Z " fill="#A6754D" transform="translate(303,92)"/>
<path d="M0 0 C5 2 5 2 7.375 3.0625 C10.55658303 4.19877965 13.65288801 4.60622212 17 5 C16.01 5.66 15.02 6.32 14 7 C14 7.66 14 8.32 14 9 C9.80500604 8.46351765 7.45751442 7.14637983 4.1875 4.5 C3.39730469 3.8709375 2.60710937 3.241875 1.79296875 2.59375 C1.20128906 2.0678125 0.60960937 1.541875 0 1 C0 0.67 0 0.34 0 0 Z " fill="#A4754F" transform="translate(250,323)"/>
<path d="M0 0 C5.15436796 1.36439152 8.06648401 4.72573615 11 9 C11 9.66 11 10.32 11 11 C5.84563204 9.63560848 2.93351599 6.27426385 0 2 C0 1.34 0 0.68 0 0 Z " fill="#B68154" transform="translate(348,219)"/>
<path d="M0 0 C3.23861303 1.44424635 5.61969163 3.25772247 8.25 5.625 C8.95640625 6.25664062 9.6628125 6.88828125 10.390625 7.5390625 C10.92171875 8.02117187 11.4528125 8.50328125 12 9 C10.265625 9.703125 10.265625 9.703125 8 10 C5.859375 8.671875 5.859375 8.671875 3.75 6.75 C3.04359375 6.12609375 2.3371875 5.5021875 1.609375 4.859375 C0 3 0 3 0 0 Z " fill="#755340" transform="translate(345,183)"/>
<path d="M0 0 C6.93 3.96 6.93 3.96 14 8 C13.01 8.66 12.02 9.32 11 10 C4.565 6.04 4.565 6.04 -2 2 C-1.34 1.34 -0.68 0.68 0 0 Z " fill="#69412B" transform="translate(305,226)"/>
<path d="M0 0 C4.56848111 0.87855406 8.69954021 2.69954021 12 6 C12 6.99 12 7.98 12 9 C8.20960702 7.18061137 4.56917157 5.22231437 1 3 C0.67 2.01 0.34 1.02 0 0 Z " fill="#5C3721" transform="translate(302,158)"/>
<path d="M0 0 C0.33 0 0.66 0 1 0 C2.5688 10.7272 2.5688 10.7272 0 16 C-0.66 16.33 -1.32 16.66 -2 17 C-1.34 11.39 -0.68 5.78 0 0 Z " fill="#6A4F3D" transform="translate(267,132)"/>
<path d="M0 0 C0.33 0 0.66 0 1 0 C1 4.29 1 8.58 1 13 C0.34 13 -0.32 13 -1 13 C-1.33 13.66 -1.66 14.32 -2 15 C-1.85930804 12.87465341 -1.71229079 10.74972471 -1.5625 8.625 C-1.48128906 7.44164063 -1.40007812 6.25828125 -1.31640625 5.0390625 C-1 2 -1 2 0 0 Z " fill="#52311D" transform="translate(303,101)"/>
<path d="M0 0 C0.33 0 0.66 0 1 0 C1.08078641 2.12438339 1.13909141 4.2496323 1.1875 6.375 C1.22230469 7.55835937 1.25710938 8.74171875 1.29296875 9.9609375 C1.19628906 10.96382812 1.09960938 11.96671875 1 13 C0.01 13.66 -0.98 14.32 -2 15 C-2.19392201 9.47322267 -1.7479503 5.24385089 0 0 Z " fill="#5B3825" transform="translate(307,58)"/>
<path d="M0 0 C0 0.99 0 1.98 0 3 C-1.75 4.38671875 -1.75 4.38671875 -4 5.6875 C-4.7425 6.12449219 -5.485 6.56148437 -6.25 7.01171875 C-6.8275 7.33785156 -7.405 7.66398438 -8 8 C-8.33 6.35 -8.66 4.7 -9 3 C-6.03 2.01 -3.06 1.02 0 0 Z " fill="#66402A" transform="translate(260,248)"/>
<path d="M0 0 C0 3.61137513 -0.92530082 4.74732191 -2.9375 7.6875 C-3.48277344 8.49574219 -4.02804687 9.30398437 -4.58984375 10.13671875 C-5.05519531 10.75160156 -5.52054687 11.36648437 -6 12 C-6.33 12 -6.66 12 -7 12 C-6.7589852 5.85412262 -6.7589852 5.85412262 -4.59765625 3.421875 C-3.11953029 2.21155069 -1.56352047 1.09779097 0 0 Z " fill="#5F3E28" transform="translate(379,164)"/>
<path d="M0 0 C0 3.19610552 -0.54671542 4.41717626 -2 7.1875 C-2.37125 7.90292969 -2.7425 8.61835938 -3.125 9.35546875 C-3.558125 10.16951172 -3.558125 10.16951172 -4 11 C-4.66 11 -5.32 11 -6 11 C-5.62671065 5.64951939 -4.0042343 3.49087093 0 0 Z " fill="#AF7E53" transform="translate(283,157)"/>
<path d="M0 0 C-0.99 1.485 -0.99 1.485 -2 3 C-5.0390625 3.29296875 -5.0390625 3.29296875 -8.625 3.1875 C-9.81351562 3.16042969 -11.00203125 3.13335937 -12.2265625 3.10546875 C-13.59941406 3.05326172 -13.59941406 3.05326172 -15 3 C-15 2.34 -15 1.68 -15 1 C-13.0641649 0.63684334 -11.12624752 0.28477269 -9.1875 -0.0625 C-8.10855469 -0.25972656 -7.02960938 -0.45695313 -5.91796875 -0.66015625 C-3 -1 -3 -1 0 0 Z " fill="#AF7C4F" transform="translate(296,150)"/>
<path d="M0 0 C1.65 0.33 3.3 0.66 5 1 C1.87378374 4.39417765 -0.56541027 6.6062718 -5 8 C-3.35 5.36 -1.7 2.72 0 0 Z " fill="#AB7A4D" transform="translate(271,277)"/>
<path d="M0 0 C3.7910119 1.44950455 7.3874638 3.15172566 11 5 C9.4375 6.25 9.4375 6.25 7 7 C4.42998985 5.93237266 2.3469597 4.53455057 0 3 C0 2.01 0 1.02 0 0 Z " fill="#77533B" transform="translate(314,165)"/>
<path d="M0 0 C3.27286682 2.7819368 4.96427697 6.27954067 7 10 C6.01 10.66 5.02 11.32 4 12 C3.32645501 10.56570999 2.66140299 9.12742943 2 7.6875 C1.62875 6.88699219 1.2575 6.08648437 0.875 5.26171875 C0 3 0 3 0 0 Z " fill="#A7784F" transform="translate(245,301)"/>
<path d="M0 0 C2.64 0.66 5.28 1.32 8 2 C4.96474514 4.02350324 3.80573798 4.32124018 0.3125 4.625 C-0.49574219 4.69976562 -1.30398437 4.77453125 -2.13671875 4.8515625 C-3.05904297 4.92503906 -3.05904297 4.92503906 -4 5 C-4 4.34 -4 3.68 -4 3 C-3.01 3 -2.02 3 -1 3 C-0.67 2.01 -0.34 1.02 0 0 Z " fill="#6C442B" transform="translate(249,245)"/>
<path d="M0 0 C1 3 1 3 -0.4375 6.1875 C-1.2109375 7.5796875 -1.2109375 7.5796875 -2 9 C-2.99 8.67 -3.98 8.34 -5 8 C-3.8141763 4.62496331 -2.72426311 2.35277269 0 0 Z " fill="#62492C" transform="translate(285,34)"/>
<path d="M0 0 C0.66 0 1.32 0 2 0 C0.54955729 4.10958767 -1.51110752 7.43258745 -4 11 C-4.99 10.67 -5.98 10.34 -7 10 C-6.34 10 -5.68 10 -5 10 C-4.731875 9.278125 -4.46375 8.55625 -4.1875 7.8125 C-3.00098638 5.00233617 -1.72514361 2.51583443 0 0 Z " fill="#6E472E" transform="translate(300,231)"/>
<path d="M0 0 C1.75098126 2.62647188 3.38731308 5.28775382 5 8 C4.34 8.66 3.68 9.32 3 10 C1.68 9.01 0.36 8.02 -1 7 C-0.67 4.69 -0.34 2.38 0 0 Z " fill="#C28E5A" transform="translate(337,199)"/>
<path d="M0 0 C0.33 0.99 0.66 1.98 1 3 C-0.14453125 5.04296875 -0.14453125 5.04296875 -1.8125 7.1875 C-2.62654297 8.26064453 -2.62654297 8.26064453 -3.45703125 9.35546875 C-3.96621094 9.89816406 -4.47539062 10.44085938 -5 11 C-5.66 11 -6.32 11 -7 11 C-5.7580393 7.56072421 -4.44259716 4.74792181 -2 2 C-1.34 2 -0.68 2 0 2 C0 1.34 0 0.68 0 0 Z " fill="#603D25" transform="translate(341,182)"/>
<path d="M0 0 C0.99 0 1.98 0 3 0 C3 2.64 3 5.28 3 8 C2.01 8 1.02 8 0 8 C0 5.36 0 2.72 0 0 Z " fill="#513522" transform="translate(279,42)"/>
<path d="M0 0 C0.268125 0.556875 0.53625 1.11375 0.8125 1.6875 C2.00329541 4.09821537 2.00329541 4.09821537 3.6875 6.625 C4.120625 7.40875 4.55375 8.1925 5 9 C4.67 9.66 4.34 10.32 4 11 C1 10 1 10 -0.25 7.75 C-1.07700926 4.71763271 -0.85394079 2.98879276 0 0 Z " fill="#765541" transform="translate(302,140)"/>
<path d="M0 0 C2.97 0.33 5.94 0.66 9 1 C7.68 1.33 6.36 1.66 5 2 C4.67 2.99 4.34 3.98 4 5 C2.68 4.67 1.36 4.34 0 4 C0 2.68 0 1.36 0 0 Z " fill="#A97549" transform="translate(264,246)"/>
<path d="M0 0 C4.67692308 1.47692308 4.67692308 1.47692308 6.3125 4.125 C6.539375 4.74375 6.76625 5.3625 7 6 C4.0625 5.25 4.0625 5.25 1 4 C0.125 1.875 0.125 1.875 0 0 Z " fill="#5C3821" transform="translate(348,209)"/>
<path d="M0 0 C2.5 1.3125 2.5 1.3125 5 3 C5 3.99 5 4.98 5 6 C3.35 5.67 1.7 5.34 0 5 C0 4.34 0 3.68 0 3 C-0.66 2.67 -1.32 2.34 -2 2 C-1.34 2 -0.68 2 0 2 C0 1.34 0 0.68 0 0 Z " fill="#6A4731" transform="translate(340,179)"/>
<path d="M0 0 C0.33 0 0.66 0 1 0 C1 2.97 1 5.94 1 9 C-0.32 9 -1.64 9 -3 9 C-2.25 2.25 -2.25 2.25 0 0 Z " fill="#6C4935" transform="translate(402,167)"/>
<path d="M0 0 C3.65316671 1.24976756 4.78065836 1.67098753 7 5 C5.68 5.33 4.36 5.66 3 6 C0 2.25 0 2.25 0 0 Z " fill="#AB784F" transform="translate(348,219)"/>
<path d="M0 0 C1.15941038 3.47823115 0.70820884 5.45895578 0 9 C-1.5625 7.25 -1.5625 7.25 -3 5 C-2.8125 2.8125 -2.8125 2.8125 -2 1 C-1.34 0.67 -0.68 0.34 0 0 Z " fill="#6A4D3D" transform="translate(307,71)"/>
<path d="M0 0 C0.33 0 0.66 0 1 0 C0.25 6.75 0.25 6.75 -2 9 C-2.6875 7.3125 -2.6875 7.3125 -3 5 C-1.625 2.25 -1.625 2.25 0 0 Z " fill="#674839" transform="translate(279,361)"/>
<path d="M0 0 C1.65 0.33 3.3 0.66 5 1 C2.37801226 3.15377564 0.35595828 4.40072174 -3 5 C-3 4.34 -3 3.68 -3 3 C-3.66 2.67 -4.32 2.34 -5 2 C-3.35 2 -1.7 2 0 2 C0 1.34 0 0.68 0 0 Z " fill="#674028" transform="translate(273,322)"/>
<path d="M0 0 C0 0.99 0 1.98 0 3 C-2.5 5.1875 -2.5 5.1875 -5 7 C-5.66 6.34 -6.32 5.68 -7 5 C-4.69 3.35 -2.38 1.7 0 0 Z " fill="#A0704A" transform="translate(302,310)"/>
<path d="M0 0 C2.31 0.33 4.62 0.66 7 1 C6.6875 2.9375 6.6875 2.9375 6 5 C5.01 5.33 4.02 5.66 3 6 C2.814375 5.071875 2.814375 5.071875 2.625 4.125 C2.12802644 1.80879168 2.12802644 1.80879168 0 0 Z " fill="#A77447" transform="translate(286,220)"/>
<path d="M0 0 C0.99 0.33 1.98 0.66 3 1 C0.31158141 3.25245881 -1.64641875 4.88213958 -5 6 C-3.63016497 2.83884224 -3.0109362 2.0072908 0 0 Z " fill="#684024" transform="translate(346,188)"/>
<path d="M0 0 C1 2 1 2 0.25 5.0625 C-0.1625 6.031875 -0.575 7.00125 -1 8 C-1.99 8.33 -2.98 8.66 -4 9 C-3.38461538 3.46153846 -3.38461538 3.46153846 -1.4375 1.125 C-0.963125 0.75375 -0.48875 0.3825 0 0 Z " fill="#6B462B" transform="translate(288,225)"/>
<path d="M0 0 C2.88437779 1.29299694 4.87219421 2.65941363 7 5 C4.125 4.6875 4.125 4.6875 1 4 C0.34 3.01 -0.32 2.02 -1 1 C-0.67 0.67 -0.34 0.34 0 0 Z " fill="#6C4B35" transform="translate(350,188)"/>
<path d="M0 0 C2.31 0 4.62 0 7 0 C6.01 0.66 5.02 1.32 4 2 C4 2.66 4 3.32 4 4 C2.68 3.67 1.36 3.34 0 3 C0 2.01 0 1.02 0 0 Z " fill="#B37F54" transform="translate(260,328)"/>
<path d="M0 0 C0.33 0.99 0.66 1.98 1 3 C-0.65 4.65 -2.3 6.3 -4 8 C-3.50168276 4.31245243 -2.89932357 2.39509338 0 0 Z " fill="#543221" transform="translate(267,249)"/>
<path d="M0 0 C0.66 0.33 1.32 0.66 2 1 C1.01 3.31 0.02 5.62 -1 8 C-1.99 7.34 -2.98 6.68 -4 6 C-2.68 4.02 -1.36 2.04 0 0 Z " fill="#66422B" transform="translate(295,228)"/>
<path d="M0 0 C3.65316671 1.24976756 4.78065836 1.67098753 7 5 C4.625 4.75 4.625 4.75 2 4 C0.6875 1.9375 0.6875 1.9375 0 0 Z " fill="#593626" transform="translate(298,222)"/>
<path d="M0 0 C1.32 0.99 2.64 1.98 4 3 C2.02 4.32 0.04 5.64 -2 7 C-2.33 6.01 -2.66 5.02 -3 4 C-2.01 3.34 -1.02 2.68 0 2 C0 1.34 0 0.68 0 0 Z " fill="#9F734D" transform="translate(336,176)"/>
<path d="M0 0 C2.23551759 3.35327639 2.17283528 3.90743657 1.625 7.6875 C1.51414062 8.49574219 1.40328125 9.30398437 1.2890625 10.13671875 C1.19367188 10.75160156 1.09828125 11.36648437 1 12 C0.67 12 0.34 12 0 12 C-1.28571429 3.42857143 -1.28571429 3.42857143 0 0 Z " fill="#7D563A" transform="translate(371,173)"/>
<path d="M0 0 C0 1.98 0 3.96 0 6 C-0.99 6 -1.98 6 -3 6 C-3 4.35 -3 2.7 -3 1 C-1 0 -1 0 0 0 Z " fill="#C28D5B" transform="translate(280,167)"/>
</svg>
