<svg xmlns="http://www.w3.org/2000/svg" width="544" height="544"><path fill="#5d3a25" d="m316 1 7 9q2 20-10 36l-2 2q-2 4-1 10l-3 21q-2 13-2 26l-2 27q-1 8 3 16l2 3 1 3 2 3 1 3 1 2q2 3 6 5l3 1 3 2q17 8 30 21l4 1q6-3 9-8l3-10q3-7 10-13 6-2 13-2 5 2 8 6 5 14 2 27l-9 9q-10 11-18 23l-18 29c-10 17-20 32-38 43-9 5-15 17-20 27l-1 2-5 10-2 3q-24 45-31 96v3l-1 12c-3 29-12 54-35 73l-12 8-9 7q-13 9-27 7-19-6-29-22-13-21-9-45 6-31 27-55l8-10 4-5 18-24 20-33q8-14 11-29 3-10 9-20 4-4 2-10l-6-29-1-2-2-9-3-25-1-2q0-5 4-9c4-5 2-11 2-17 0-10-1-17 6-24q7-5 16-8 4-1 7-5l1-4 1-2 1-6 1-3 2-23c0-36 0-36 6-51l4-17q1-12 7-22l1-2 7-12 1-2 3-4q4-7 10-12z"/><path fill="#5c3a25" d="m316 1 7 9q2 20-10 36l-2 2q-2 4-1 10l-3 21q-2 13-2 26l-2 27q-1 8 3 16l2 3 1 3 2 3 1 3 1 2q2 3 6 5l3 1 3 2q17 8 30 21l4 1q6-3 9-8l3-10q3-7 10-13 6-2 13-2l4 2-2 1 2 2q4 4 2 10l-10 18-4 8q-6-1-10-5-3-3-3-8h-2q2 9 9 14l2 1q-3 6-7 8-9 6-12 17h-2l-1 4h-4v2q-2 6-5 8l-3 3q-2 3-5 2l2 2 1 5-4 7h-3v3q-10-2-19-7l-15-7-3-2-7-3 5-9 1-2 1-2h-2l-1 2-4 8h-3l4-12-7 9v-2h-3l2-10q-3 5-4 9l-3-1-24-5q-13 0-24-7l-1-6h-2l2-5v-17q-2-11 6-20 7-5 16-8 4-1 7-5l1-4 1-2 1-6 1-3 2-23c0-36 0-36 6-51l4-17q1-12 7-22l1-2 7-12 1-2 3-4q4-7 10-12z"/><path fill="#6f472a" d="m288 156 4 1-1 2-2 3-2 3-1 5 1-2 7-11 11 4 30 17 2-2 18 15 4 1q6-3 9-8l3-10q3-7 10-13 6-2 13-2l4 2-2 1 2 2q4 4 2 10l-10 18-4 8q-6-1-10-5-3-3-3-8h-2q2 9 9 14l2 1q-3 6-7 8-9 6-12 17h-2l-1 4h-4v2q-1 6-6 8l-2 3-2 2q-23-5-41-20-12-7-25-9-3-11-3-23l4-2 2-1q7-3 14-1l8 3 3 1a142 142 0 0 1 29 18q7 4 11 12l7 7-5-8-2-4 4 1-1-4-4-3-11-7a119 119 0 0 0-52-27q-6-2-6-4-3-7 0-14l6-4-1 2-3 12h2v-2q1-8 6-13"/><path fill="#b98552" d="m305 193 3 1a142 142 0 0 1 29 18q7 4 11 12l8 9-6 9-2 2-2 2q-23-5-41-20-12-7-25-9-3-11-3-23l4-2 2-1q11-5 22 2"/><path fill="#b88451" d="m250 205 4 4q8 6 18 8l2 1 10 1q11 2 19 8l29 16-2 6-1 8 8 4q-6 1-10-2h-2l-30-15 5-9 1-2 1-2h-2l-1 2-4 8h-3l4-12-7 9v-2h-3l2-10q-3 5-4 9l-3-1-24-5q-12-1-24-7-1-5 2-10l3-2 2-1q4-5 10-4"/><path fill="#efcc4d" d="m316 1 7 9q2 20-10 36l-1 2q-3 6-10 8t-14-2q-6-3-6-6 1-7 4-14l1-2 13-25q6-10 16-6"/><path fill="#b98552" d="m288 156 4 1-1 2-2 3-2 3-1 5 1-2 7-11 11 4 30 17 2-2 3 3-1 1-2 2-2 1-3 5 2-2q2-4 6-4l-6 11h2l1-2 4-6 5 1-2 6-3 2-2 6q4 8 10 12l3 3q-9-1-16-9-15-15-35-22l-3-2-14-3q-6-2-6-4-3-7 0-14l6-4-1 2-3 12h2v-2q1-8 6-13"/><path fill="#b88451" d="m247 243 24 3q8 3 17 3c8 2 8 2 12 5q3 5 2 10v3l1 8v4q0 5-3 8l-2 3-2 2h-4l-3-5-2-3-2-3-4-6h-2l-3 3q-2 4-8 7l-2-1 1-2q6-7 8-15l-2 1q-5 6-13 7l1-1 9-15-3 2-2 1-4 2h-5l1-1 10-11-1-1-2 2q-6 4-13 4l2-2 7-6-1 1-11 1-2-2 8-1-7-4z"/><path fill="#b58353" d="M304 99h1l-1 26h-1l-1-6h-1l-2 25c-12 6-12 6-17 6v-2l2-45h5l3-1 9-1 1 13h2z"/><path fill="#b98656" d="M387 159c7 0 7 0 11 2l-2 1 2 2q4 4 2 10l-10 18-4 8q-6-1-10-5-6-8-4-17 3-10 13-15l8-2-6-1z"/><path fill="#b88453" d="M290 57h16l-2 21v3l-1 4v2l-3 6q-8 3-17 2l1-3z"/><path fill="#664128" d="M303 117v14q-1 9 3 17l2 3 1 3 2 3 1 3 1 2q2 3 6 5l3 1 3 2 6 3 3 2 3 4q-9-2-17-8l-2-1-11-6-2-2-4-3-6-1-5 5-1 2-3 6-1-4 3-5 2-3 1-2-4 1q-4 6-5 13h-2q0-9 4-16l-3-1q0-3 2-5l5-1 10-4v-2l1-15v-3l1-3v-3z"/><path fill="#613c27" d="M277 216q18 2 32 12l12 7 2 1 18 8 4 3v2l1 2q0 5-4 9h-3v3l-7-4-2-1-2-1q0-8 4-14l-2-1q-7-1-13-6l-3-1-15-10q-11-6-23-6z"/><path fill="#bc8955" d="m349 190 8 5 2 2 6 6q0 5-3 8t-8 2l-6-4-3-2-4-5q0-5 3-10z"/><path fill="#b58253" d="m369 187 3 5q4 7 10 10-1 4-5 6-8 8-15 18-5-2-7-7l2-1q6-2 9-7v-10l-2-2-1-1q1-7 6-11"/><path fill="#70472c" d="M303 117v14q-1 9 3 17v3l-2-1 1 3 3 7-9-4q-8-4-18-3l2-4 5-1 10-4v-2l1-15v-3l1-3v-3z"/><path fill="#b58050" d="M301 255q7 0 14 5l12 4-9 7-2 2h-8q-6-8-7-18"/><path fill="#bb885b" d="m302 310-1 5c-11 9-23 18-37 17q-7-1-12-6l-2-3 7 3q13 3 23-4l3-1z"/><path fill="#bc8856" d="m334 245 11 4v8q-1 3-6 2-4 1-9-2c1-9 1-9 4-12"/><path fill="#6b4b35" d="m393 160 2 2h-2q-10 0-17 8-4 9-5 20l-2-2-2 3-2 1-3 5-5-4 2-1q11-6 12-18 3-7 9-13 7-3 13-1"/><path fill="#654330" d="M307 52h2q1 19-4 38l-3-1 4-32h-2l-7 1h-4q4-4 10-3z"/><path fill="#664228" d="M303 92h1v22h-2l-1 2v-15l-8 2v-2h-3l-8-2v-1h3l17-4z"/><path fill="#684028" d="m361 213-1 1q-2 2-2 5l-2 1 4 5h3v2h-2l-1 4h-4l-1 2-1-3-4-6-2-5 4 1-1-5 2-1 2 1v-2z"/><path fill="#b78356" d="m245 301 6 7q8 12 22 14v2q-10 1-18-5-7-6-10-15z"/><path fill="#b68353" d="m303 148 2 4 1 3 2 5-9-4q-8-4-18-3v-2h2l14-3z"/><path fill="#5b3721" d="M354 193q6 0 10 4l4 8q0 6-4 10t-7 3l5-7q3-3 2-7-1-5-6-7z"/><path fill="#624231" d="M303 117v19l-1 8h-2v-26z"/><path fill="#704c35" d="m314 165 14 6 2 2 2 1 2 1 3 4q-12-4-23-11z"/><path fill="#7c623c" d="m299 8 1 2-6 12-1 3-2 4-1 3-4 3h-2l5-10 1-3 2-3 2-3z"/><path fill="#71472b" d="m332 243 4 2-2 2q-4 4-3 10l11 2-3 1v3l-7-4-2-1-2-1q0-8 4-14"/><path fill="#755339" d="M307 52h2v16h-1l-1-6h-1v-5h-2l-7 1h-4q4-4 10-3z"/><path fill="#ab784d" d="m258 317 2 1 13 4v2q-9 0-16-4z"/><path fill="#633f25" d="M340 202q5 2 8 6l7 5v2q-9-2-15-10z"/><path fill="#60422f" d="m396 162 5 1q3 4 2 9v4h-4v-7q0-3-3-5z"/><path fill="#765742" d="M369 180h1q1 5-3 9l-1 2-4 6-5-4 2-1q7-4 10-10z"/><path fill="#a6754d" d="m303 92 1 3-2-1zm-3 3 2 1q-4 4-9 4h-5l-6-2h3l4-1h2z"/><path fill="#a4754f" d="m250 323 7 3 10 2-3 2v2l-10-4-2-2-2-2z"/><path fill="#b68154" d="M348 219q7 2 11 9v2q-7-2-11-9z"/><path fill="#755340" d="M345 183q5 2 8 6l2 2 2 1-4 1-4-3-2-2q-2-2-2-5"/><path fill="#69412b" d="m305 226 14 8-3 2-13-8z"/><path fill="#5c3721" d="M302 158q8 2 12 6v3l-11-6z"/><path fill="#6a4f3d" d="M267 132h1c2 11 2 11-1 16l-2 1z"/><path fill="#52311d" d="M303 101h1v13h-2l-1 2 1-10z"/><path fill="#5b3825" d="M307 58h1v13l-3 2q0-8 2-15"/><path fill="#66402a" d="M260 248v3l-4 3-2 1-2 1-1-5z"/><path fill="#5f3e28" d="M379 164q0 5-3 8l-2 2-1 2h-1c0-6 0-6 2-9z"/><path fill="#af7e53" d="m283 157-2 7-1 2-1 2h-2q0-7 6-11"/><path fill="#af7c4f" d="m296 150-2 3h-13v-2l6-1 3-1z"/><path fill="#ab7a4d" d="m271 277 5 1q-4 5-10 7z"/><path fill="#77533b" d="m314 165 11 5-4 2-7-4z"/><path fill="#a7784f" d="m245 301 7 10-3 2-2-4-1-3z"/><path fill="#6c442b" d="m249 245 8 2-8 3h-4v-2h3z"/><path fill="#62492c" d="M285 34v6l-2 3-3-1q1-5 5-8"/><path fill="#6e472e" d="M300 231h2q-2 6-6 11l-3-1h2l1-2z"/><path fill="#c28e5a" d="m337 199 5 8-2 2-4-3z"/><path fill="#603d25" d="m341 182 1 3-3 4-1 2-2 2h-2l5-9h2z"/><path fill="#513522" d="M279 42h3v8h-3z"/><path fill="#765541" d="m302 140 1 2 3 5 1 2-1 2-4-3z"/><path fill="#a97549" d="m264 246 9 1-4 1-1 3-4-1z"/><path fill="#5c3821" d="M348 209q6 1 6 4l1 2-6-2z"/><path fill="#6a4731" d="m340 179 5 3v3l-5-1v-2l-2-1h2z"/><path fill="#6c4935" d="M402 167h1v9h-4c1-7 1-7 3-9"/><path fill="#ab784f" d="M348 219q5 1 7 5l-4 1z"/><path fill="#6a4d3d" d="M307 71v9l-3-4 1-4z"/><path fill="#674839" d="M279 361h1c-1 7-1 7-3 9l-1-4z"/><path fill="#674028" d="m273 322 5 1-8 4v-2l-2-1h5z"/><path fill="#a0704a" d="M302 310v3l-5 4-2-2z"/><path fill="#a77447" d="m286 220 7 1-1 4-3 1v-2z"/><path fill="#684024" d="m346 188 3 1-8 5q1-4 5-6"/><path fill="#6b462b" d="M288 225v5l-1 3-3 1c1-6 1-6 3-8z"/><path fill="#6c4b35" d="m350 188 7 5-6-1-2-3z"/><path fill="#b37f54" d="M260 328h7l-3 2v2l-4-1z"/><path fill="#543221" d="m267 249 1 3-5 5q0-5 4-8"/><path fill="#66422b" d="m295 228 2 1-3 7-3-2z"/><path fill="#593626" d="M298 222q5 1 7 5l-5-1z"/><path fill="#9f734d" d="m336 176 4 3-6 4-1-3 3-2z"/><path fill="#7d563a" d="M371 173q3 3 2 8l-1 2v2h-1z"/><path fill="#c28d5b" d="M280 167v6h-3v-5z"/></svg>